G04 #@! TF.FileFunction,Copper,L1,Top,Signal*
%FSLAX46Y46*%
G04 Gerber Fmt 4.6, Leading zero omitted, Abs format (unit mm)*
G04 Created by KiCad (PCBNEW 4.0.6) date 07/02/17 06:45:00*
%MOMM*%
%LPD*%
G01*
G04 APERTURE LIST*
%ADD10C,0.100000*%
%ADD11R,1.600000X1.600000*%
%ADD12C,1.600000*%
%ADD13R,1.700000X1.700000*%
%ADD14O,1.700000X1.700000*%
%ADD15C,1.400000*%
%ADD16O,1.400000X1.400000*%
%ADD17O,1.600000X1.600000*%
%ADD18R,1.800000X1.800000*%
%ADD19O,1.800000X1.800000*%
%ADD20C,1.500000*%
%ADD21C,0.400000*%
%ADD22C,0.500000*%
G04 APERTURE END LIST*
D10*
D11*
X46990000Y-29210000D03*
D12*
X50490000Y-29210000D03*
X78740000Y-88900000D03*
X81240000Y-88900000D03*
X78740000Y-92710000D03*
X81240000Y-92710000D03*
X46990000Y-21590000D03*
X49490000Y-21590000D03*
X59690000Y-21590000D03*
X57190000Y-21590000D03*
D11*
X59690000Y-29210000D03*
D12*
X56190000Y-29210000D03*
X46990000Y-90170000D03*
X46990000Y-92670000D03*
X58420000Y-93980000D03*
X55920000Y-93980000D03*
D13*
X96520000Y-36830000D03*
D14*
X96520000Y-39370000D03*
X96520000Y-41910000D03*
X96520000Y-44450000D03*
X96520000Y-46990000D03*
X96520000Y-49530000D03*
X96520000Y-52070000D03*
X96520000Y-54610000D03*
X96520000Y-57150000D03*
X96520000Y-59690000D03*
X96520000Y-62230000D03*
X96520000Y-64770000D03*
X96520000Y-67310000D03*
X96520000Y-69850000D03*
X96520000Y-72390000D03*
X96520000Y-74930000D03*
D13*
X102870000Y-85090000D03*
D14*
X102870000Y-82550000D03*
X102870000Y-80010000D03*
X102870000Y-77470000D03*
X102870000Y-74930000D03*
X102870000Y-72390000D03*
X102870000Y-69850000D03*
X102870000Y-67310000D03*
X102870000Y-64770000D03*
X102870000Y-62230000D03*
D13*
X44450000Y-46990000D03*
D14*
X44450000Y-49530000D03*
X44450000Y-52070000D03*
X44450000Y-54610000D03*
X44450000Y-57150000D03*
X44450000Y-59690000D03*
X44450000Y-62230000D03*
X44450000Y-64770000D03*
X44450000Y-67310000D03*
X44450000Y-69850000D03*
X44450000Y-72390000D03*
X44450000Y-74930000D03*
X44450000Y-77470000D03*
X44450000Y-80010000D03*
X44450000Y-82550000D03*
X44450000Y-85090000D03*
D15*
X64770000Y-40640000D03*
D16*
X64770000Y-43180000D03*
D15*
X59690000Y-43180000D03*
D16*
X59690000Y-40640000D03*
D15*
X63500000Y-50800000D03*
D16*
X63500000Y-53340000D03*
D15*
X64770000Y-69850000D03*
D16*
X64770000Y-72390000D03*
D15*
X64770000Y-64770000D03*
D16*
X64770000Y-67310000D03*
D15*
X63500000Y-74930000D03*
D16*
X63500000Y-77470000D03*
D15*
X64770000Y-62230000D03*
D16*
X64770000Y-59690000D03*
D11*
X71120000Y-35560000D03*
D17*
X86360000Y-83820000D03*
X71120000Y-38100000D03*
X86360000Y-81280000D03*
X71120000Y-40640000D03*
X86360000Y-78740000D03*
X71120000Y-43180000D03*
X86360000Y-76200000D03*
X71120000Y-45720000D03*
X86360000Y-73660000D03*
X71120000Y-48260000D03*
X86360000Y-71120000D03*
X71120000Y-50800000D03*
X86360000Y-68580000D03*
X71120000Y-53340000D03*
X86360000Y-66040000D03*
X71120000Y-55880000D03*
X86360000Y-63500000D03*
X71120000Y-58420000D03*
X86360000Y-60960000D03*
X71120000Y-60960000D03*
X86360000Y-58420000D03*
X71120000Y-63500000D03*
X86360000Y-55880000D03*
X71120000Y-66040000D03*
X86360000Y-53340000D03*
X71120000Y-68580000D03*
X86360000Y-50800000D03*
X71120000Y-71120000D03*
X86360000Y-48260000D03*
X71120000Y-73660000D03*
X86360000Y-45720000D03*
X71120000Y-76200000D03*
X86360000Y-43180000D03*
X71120000Y-78740000D03*
X86360000Y-40640000D03*
X71120000Y-81280000D03*
X86360000Y-38100000D03*
X71120000Y-83820000D03*
X86360000Y-35560000D03*
D18*
X46990000Y-38100000D03*
D19*
X49530000Y-38100000D03*
X52070000Y-38100000D03*
D11*
X52070000Y-48260000D03*
D17*
X59690000Y-55880000D03*
X52070000Y-50800000D03*
X59690000Y-53340000D03*
X52070000Y-53340000D03*
X59690000Y-50800000D03*
X52070000Y-55880000D03*
X59690000Y-48260000D03*
D11*
X52070000Y-62230000D03*
D17*
X59690000Y-82550000D03*
X52070000Y-64770000D03*
X59690000Y-80010000D03*
X52070000Y-67310000D03*
X59690000Y-77470000D03*
X52070000Y-69850000D03*
X59690000Y-74930000D03*
X52070000Y-72390000D03*
X59690000Y-72390000D03*
X52070000Y-74930000D03*
X59690000Y-69850000D03*
X52070000Y-77470000D03*
X59690000Y-67310000D03*
X52070000Y-80010000D03*
X59690000Y-64770000D03*
X52070000Y-82550000D03*
X59690000Y-62230000D03*
D20*
X73660000Y-88900000D03*
X73660000Y-93780000D03*
X53340000Y-88900000D03*
X58220000Y-88900000D03*
D13*
X86360000Y-20320000D03*
D14*
X88900000Y-20320000D03*
X86360000Y-22860000D03*
X88900000Y-22860000D03*
X86360000Y-25400000D03*
X88900000Y-25400000D03*
D13*
X106680000Y-92710000D03*
D14*
X104140000Y-92710000D03*
X101600000Y-92710000D03*
X99060000Y-92710000D03*
X96520000Y-92710000D03*
X93980000Y-92710000D03*
X91440000Y-92710000D03*
X88900000Y-92710000D03*
X86360000Y-92710000D03*
X83820000Y-92710000D03*
D21*
X73660000Y-88900000D02*
X76200000Y-86360000D01*
X74930000Y-63500000D02*
X71120000Y-63500000D01*
X76200000Y-64770000D02*
X74930000Y-63500000D01*
X76200000Y-86360000D02*
X76200000Y-64770000D01*
X73660000Y-88900000D02*
X78740000Y-88900000D01*
X69850000Y-88900000D02*
X69850000Y-92710000D01*
X69850000Y-88900000D02*
X72390000Y-86360000D01*
X72390000Y-86360000D02*
X74930000Y-83820000D01*
X74930000Y-83820000D02*
X74930000Y-68580000D01*
X74930000Y-68580000D02*
X72390000Y-66040000D01*
X71120000Y-66040000D02*
X72390000Y-66040000D01*
X70920000Y-93780000D02*
X73660000Y-93780000D01*
X69850000Y-92710000D02*
X70920000Y-93780000D01*
X73660000Y-93780000D02*
X77670000Y-93780000D01*
X77670000Y-93780000D02*
X78740000Y-92710000D01*
D22*
X71120000Y-58420000D02*
X77470000Y-58420000D01*
X80010000Y-60960000D02*
X86360000Y-60960000D01*
X77470000Y-58420000D02*
X80010000Y-60960000D01*
D21*
X46990000Y-90170000D02*
X48260000Y-90170000D01*
X49530000Y-88900000D02*
X53340000Y-88900000D01*
X48260000Y-90170000D02*
X49530000Y-88900000D01*
X52070000Y-80010000D02*
X53340000Y-80010000D01*
X54610000Y-87630000D02*
X53340000Y-88900000D01*
X54610000Y-81280000D02*
X54610000Y-87630000D01*
X53340000Y-80010000D02*
X54610000Y-81280000D01*
X58420000Y-93980000D02*
X58420000Y-89100000D01*
X58420000Y-89100000D02*
X58220000Y-88900000D01*
X52070000Y-77470000D02*
X53340000Y-77470000D01*
X57150000Y-87830000D02*
X58220000Y-88900000D01*
X57150000Y-81280000D02*
X57150000Y-87830000D01*
X53340000Y-77470000D02*
X57150000Y-81280000D01*
X96520000Y-36830000D02*
X91440000Y-36830000D01*
X90170000Y-35560000D02*
X86360000Y-35560000D01*
X91440000Y-36830000D02*
X90170000Y-35560000D01*
X96520000Y-44450000D02*
X90170000Y-38100000D01*
X90170000Y-38100000D02*
X86360000Y-38100000D01*
X96520000Y-52070000D02*
X92710000Y-48260000D01*
X92710000Y-46990000D02*
X86360000Y-40640000D01*
X92710000Y-48260000D02*
X92710000Y-46990000D01*
X96520000Y-54610000D02*
X93980000Y-52070000D01*
X93980000Y-50800000D02*
X86360000Y-43180000D01*
X93980000Y-52070000D02*
X93980000Y-50800000D01*
X96520000Y-57150000D02*
X95250000Y-57150000D01*
X92710000Y-52070000D02*
X86360000Y-45720000D01*
X92710000Y-54610000D02*
X92710000Y-52070000D01*
X95250000Y-57150000D02*
X92710000Y-54610000D01*
X96520000Y-59690000D02*
X93980000Y-59690000D01*
X91440000Y-53340000D02*
X86360000Y-48260000D01*
X91440000Y-57150000D02*
X91440000Y-53340000D01*
X93980000Y-59690000D02*
X91440000Y-57150000D01*
X96520000Y-62230000D02*
X92710000Y-62230000D01*
X90170000Y-54610000D02*
X86360000Y-50800000D01*
X90170000Y-59690000D02*
X90170000Y-54610000D01*
X92710000Y-62230000D02*
X90170000Y-59690000D01*
X96520000Y-64770000D02*
X92710000Y-64770000D01*
X88900000Y-55880000D02*
X86360000Y-53340000D01*
X88900000Y-60960000D02*
X88900000Y-55880000D01*
X92710000Y-64770000D02*
X88900000Y-60960000D01*
X96520000Y-67310000D02*
X92710000Y-67310000D01*
X88900000Y-63500000D02*
X86360000Y-63500000D01*
X92710000Y-67310000D02*
X88900000Y-63500000D01*
X96520000Y-69850000D02*
X92710000Y-69850000D01*
X88900000Y-66040000D02*
X86360000Y-66040000D01*
X92710000Y-69850000D02*
X88900000Y-66040000D01*
X93980000Y-73660000D02*
X91440000Y-73660000D01*
X95250000Y-72390000D02*
X93980000Y-73660000D01*
X96520000Y-72390000D02*
X95250000Y-72390000D01*
X91440000Y-73660000D02*
X86360000Y-68580000D01*
X96520000Y-74930000D02*
X95250000Y-74930000D01*
X91440000Y-76200000D02*
X86360000Y-71120000D01*
X93980000Y-76200000D02*
X91440000Y-76200000D01*
X95250000Y-74930000D02*
X93980000Y-76200000D01*
X86360000Y-81280000D02*
X85090000Y-81280000D01*
X101600000Y-90170000D02*
X101600000Y-92710000D01*
X97790000Y-86360000D02*
X101600000Y-90170000D01*
X85090000Y-86360000D02*
X97790000Y-86360000D01*
X83820000Y-85090000D02*
X85090000Y-86360000D01*
X83820000Y-82550000D02*
X83820000Y-85090000D01*
X85090000Y-81280000D02*
X83820000Y-82550000D01*
X86360000Y-81280000D02*
X87630000Y-81280000D01*
X100330000Y-80010000D02*
X102870000Y-80010000D01*
X97790000Y-82550000D02*
X100330000Y-80010000D01*
X88900000Y-82550000D02*
X97790000Y-82550000D01*
X87630000Y-81280000D02*
X88900000Y-82550000D01*
X86360000Y-78740000D02*
X85090000Y-78740000D01*
X99060000Y-90170000D02*
X99060000Y-92710000D01*
X97790000Y-88900000D02*
X99060000Y-90170000D01*
X85090000Y-88900000D02*
X97790000Y-88900000D01*
X82550000Y-86360000D02*
X85090000Y-88900000D01*
X82550000Y-81280000D02*
X82550000Y-86360000D01*
X85090000Y-78740000D02*
X82550000Y-81280000D01*
X102870000Y-77470000D02*
X101600000Y-77470000D01*
X88900000Y-81280000D02*
X86360000Y-78740000D01*
X97790000Y-81280000D02*
X88900000Y-81280000D01*
X101600000Y-77470000D02*
X97790000Y-81280000D01*
X86360000Y-83820000D02*
X96520000Y-83820000D01*
X107950000Y-74930000D02*
X102870000Y-69850000D01*
X107950000Y-83820000D02*
X107950000Y-74930000D01*
X104140000Y-87630000D02*
X107950000Y-83820000D01*
X100330000Y-87630000D02*
X104140000Y-87630000D01*
X96520000Y-83820000D02*
X100330000Y-87630000D01*
X102870000Y-67310000D02*
X101600000Y-67310000D01*
X90170000Y-80010000D02*
X86360000Y-76200000D01*
X97790000Y-80010000D02*
X90170000Y-80010000D01*
X100330000Y-77470000D02*
X97790000Y-80010000D01*
X100330000Y-68580000D02*
X100330000Y-77470000D01*
X101600000Y-67310000D02*
X100330000Y-68580000D01*
X102870000Y-64770000D02*
X101600000Y-64770000D01*
X91440000Y-78740000D02*
X86360000Y-73660000D01*
X97790000Y-78740000D02*
X91440000Y-78740000D01*
X99060000Y-77470000D02*
X97790000Y-78740000D01*
X99060000Y-67310000D02*
X99060000Y-77470000D01*
X101600000Y-64770000D02*
X99060000Y-67310000D01*
X59690000Y-50800000D02*
X58420000Y-49530000D01*
X44450000Y-45720000D02*
X44450000Y-46990000D01*
X46990000Y-43180000D02*
X44450000Y-45720000D01*
X55880000Y-43180000D02*
X46990000Y-43180000D01*
X57150000Y-44450000D02*
X55880000Y-43180000D01*
X57150000Y-48260000D02*
X57150000Y-44450000D01*
X58420000Y-49530000D02*
X57150000Y-48260000D01*
X59690000Y-50800000D02*
X63500000Y-50800000D01*
X59690000Y-53340000D02*
X57150000Y-50800000D01*
X45720000Y-49530000D02*
X44450000Y-49530000D01*
X46990000Y-48260000D02*
X45720000Y-49530000D01*
X46990000Y-46990000D02*
X46990000Y-48260000D01*
X49530000Y-44450000D02*
X46990000Y-46990000D01*
X54610000Y-44450000D02*
X49530000Y-44450000D01*
X55880000Y-45720000D02*
X54610000Y-44450000D01*
X55880000Y-49530000D02*
X55880000Y-45720000D01*
X57150000Y-50800000D02*
X55880000Y-49530000D01*
X59690000Y-53340000D02*
X63500000Y-53340000D01*
X71120000Y-48260000D02*
X78740000Y-48260000D01*
X92710000Y-22860000D02*
X88900000Y-22860000D01*
X93980000Y-21590000D02*
X92710000Y-22860000D01*
X93980000Y-20320000D02*
X93980000Y-21590000D01*
X91440000Y-17780000D02*
X93980000Y-20320000D01*
X83820000Y-17780000D02*
X91440000Y-17780000D01*
X80010000Y-21590000D02*
X83820000Y-17780000D01*
X80010000Y-46990000D02*
X80010000Y-21590000D01*
X78740000Y-48260000D02*
X80010000Y-46990000D01*
X71120000Y-48260000D02*
X69850000Y-48260000D01*
X63500000Y-69850000D02*
X64770000Y-69850000D01*
X62230000Y-68580000D02*
X63500000Y-69850000D01*
X62230000Y-58420000D02*
X62230000Y-68580000D01*
X67310000Y-53340000D02*
X62230000Y-58420000D01*
X67310000Y-50800000D02*
X67310000Y-53340000D01*
X69850000Y-48260000D02*
X67310000Y-50800000D01*
X71120000Y-50800000D02*
X78740000Y-50800000D01*
X81280000Y-25400000D02*
X86360000Y-20320000D01*
X81280000Y-48260000D02*
X81280000Y-25400000D01*
X78740000Y-50800000D02*
X81280000Y-48260000D01*
X64770000Y-64770000D02*
X66040000Y-64770000D01*
X67310000Y-54610000D02*
X71120000Y-50800000D01*
X67310000Y-63500000D02*
X67310000Y-54610000D01*
X66040000Y-64770000D02*
X67310000Y-63500000D01*
X59690000Y-67310000D02*
X57150000Y-64770000D01*
X67310000Y-45720000D02*
X71120000Y-45720000D01*
X66040000Y-46990000D02*
X67310000Y-45720000D01*
X66040000Y-53340000D02*
X66040000Y-46990000D01*
X60960000Y-58420000D02*
X66040000Y-53340000D01*
X58420000Y-58420000D02*
X60960000Y-58420000D01*
X57150000Y-59690000D02*
X58420000Y-58420000D01*
X57150000Y-64770000D02*
X57150000Y-59690000D01*
X71120000Y-53340000D02*
X81280000Y-53340000D01*
X82550000Y-26670000D02*
X86360000Y-22860000D01*
X82550000Y-52070000D02*
X82550000Y-26670000D01*
X81280000Y-53340000D02*
X82550000Y-52070000D01*
X71120000Y-53340000D02*
X68580000Y-55880000D01*
X67310000Y-74930000D02*
X63500000Y-74930000D01*
X68580000Y-73660000D02*
X67310000Y-74930000D01*
X68580000Y-55880000D02*
X68580000Y-73660000D01*
X52070000Y-48260000D02*
X53340000Y-48260000D01*
X54610000Y-59690000D02*
X52070000Y-62230000D01*
X54610000Y-49530000D02*
X54610000Y-59690000D01*
X53340000Y-48260000D02*
X54610000Y-49530000D01*
X52070000Y-55880000D02*
X50800000Y-55880000D01*
X50800000Y-64770000D02*
X52070000Y-64770000D01*
X49530000Y-63500000D02*
X50800000Y-64770000D01*
X49530000Y-57150000D02*
X49530000Y-63500000D01*
X50800000Y-55880000D02*
X49530000Y-57150000D01*
X59690000Y-77470000D02*
X62230000Y-80010000D01*
X68580000Y-76200000D02*
X71120000Y-73660000D01*
X68580000Y-78740000D02*
X68580000Y-76200000D01*
X67310000Y-80010000D02*
X68580000Y-78740000D01*
X62230000Y-80010000D02*
X67310000Y-80010000D01*
X71120000Y-55880000D02*
X81280000Y-55880000D01*
X86360000Y-29210000D02*
X86360000Y-25400000D01*
X83820000Y-31750000D02*
X86360000Y-29210000D01*
X83820000Y-53340000D02*
X83820000Y-31750000D01*
X81280000Y-55880000D02*
X83820000Y-53340000D01*
X71120000Y-35560000D02*
X67310000Y-35560000D01*
X41910000Y-69850000D02*
X44450000Y-69850000D01*
X38100000Y-66040000D02*
X41910000Y-69850000D01*
X38100000Y-39370000D02*
X38100000Y-66040000D01*
X43180000Y-34290000D02*
X38100000Y-39370000D01*
X66040000Y-34290000D02*
X43180000Y-34290000D01*
X67310000Y-35560000D02*
X66040000Y-34290000D01*
X71120000Y-38100000D02*
X67310000Y-38100000D01*
X41910000Y-67310000D02*
X44450000Y-67310000D01*
X39370000Y-64770000D02*
X41910000Y-67310000D01*
X39370000Y-40640000D02*
X39370000Y-64770000D01*
X44450000Y-35560000D02*
X39370000Y-40640000D01*
X64770000Y-35560000D02*
X44450000Y-35560000D01*
X67310000Y-38100000D02*
X64770000Y-35560000D01*
X71120000Y-40640000D02*
X67310000Y-40640000D01*
X41910000Y-64770000D02*
X44450000Y-64770000D01*
X40640000Y-63500000D02*
X41910000Y-64770000D01*
X40640000Y-44450000D02*
X40640000Y-63500000D01*
X44450000Y-40640000D02*
X40640000Y-44450000D01*
X54610000Y-40640000D02*
X44450000Y-40640000D01*
X55880000Y-39370000D02*
X54610000Y-40640000D01*
X55880000Y-38100000D02*
X55880000Y-39370000D01*
X57150000Y-36830000D02*
X55880000Y-38100000D01*
X63500000Y-36830000D02*
X57150000Y-36830000D01*
X64770000Y-38100000D02*
X63500000Y-36830000D01*
X67310000Y-40640000D02*
X64770000Y-38100000D01*
X71120000Y-43180000D02*
X68580000Y-43180000D01*
X43180000Y-62230000D02*
X44450000Y-62230000D01*
X41910000Y-60960000D02*
X43180000Y-62230000D01*
X41910000Y-45720000D02*
X41910000Y-60960000D01*
X45720000Y-41910000D02*
X41910000Y-45720000D01*
X55880000Y-41910000D02*
X45720000Y-41910000D01*
X57150000Y-40640000D02*
X55880000Y-41910000D01*
X57150000Y-39370000D02*
X57150000Y-40640000D01*
X58420000Y-38100000D02*
X57150000Y-39370000D01*
X60960000Y-38100000D02*
X58420000Y-38100000D01*
X62230000Y-39370000D02*
X60960000Y-38100000D01*
X62230000Y-44450000D02*
X62230000Y-39370000D01*
X63500000Y-45720000D02*
X62230000Y-44450000D01*
X66040000Y-45720000D02*
X63500000Y-45720000D01*
X68580000Y-43180000D02*
X66040000Y-45720000D01*
M02*
