M48
;DRILL file {KiCad 4.0.6} date 07/02/17 06:45:05
;FORMAT={-:-/ absolute / inch / decimal}
FMAT,2
INCH,TZ
T1C0.028
T2C0.031
T3C0.039
%
G90
G05
M72
T1
X2.35Y-1.6
X2.35Y-1.7
X2.5Y-2.
X2.5Y-2.1
X2.5Y-2.95
X2.5Y-3.05
X2.55Y-1.6
X2.55Y-1.7
X2.55Y-2.35
X2.55Y-2.45
X2.55Y-2.55
X2.55Y-2.65
X2.55Y-2.75
X2.55Y-2.85
T2
X1.85Y-0.85
X1.85Y-1.15
X1.85Y-3.55
X1.85Y-3.6484
X1.9484Y-0.85
X1.9878Y-1.15
X2.05Y-1.9
X2.05Y-2.
X2.05Y-2.1
X2.05Y-2.2
X2.05Y-2.45
X2.05Y-2.55
X2.05Y-2.65
X2.05Y-2.75
X2.05Y-2.85
X2.05Y-2.95
X2.05Y-3.05
X2.05Y-3.15
X2.05Y-3.25
X2.1Y-3.5
X2.2016Y-3.7
X2.2122Y-1.15
X2.2516Y-0.85
X2.2921Y-3.5
X2.3Y-3.7
X2.35Y-0.85
X2.35Y-1.15
X2.35Y-1.9
X2.35Y-2.
X2.35Y-2.1
X2.35Y-2.2
X2.35Y-2.45
X2.35Y-2.55
X2.35Y-2.65
X2.35Y-2.75
X2.35Y-2.85
X2.35Y-2.95
X2.35Y-3.05
X2.35Y-3.15
X2.35Y-3.25
X2.8Y-1.4
X2.8Y-1.5
X2.8Y-1.6
X2.8Y-1.7
X2.8Y-1.8
X2.8Y-1.9
X2.8Y-2.
X2.8Y-2.1
X2.8Y-2.2
X2.8Y-2.3
X2.8Y-2.4
X2.8Y-2.5
X2.8Y-2.6
X2.8Y-2.7
X2.8Y-2.8
X2.8Y-2.9
X2.8Y-3.
X2.8Y-3.1
X2.8Y-3.2
X2.8Y-3.3
X2.9Y-3.5
X2.9Y-3.6921
X3.1Y-3.5
X3.1Y-3.65
X3.1984Y-3.5
X3.1984Y-3.65
X3.4Y-1.4
X3.4Y-1.5
X3.4Y-1.6
X3.4Y-1.7
X3.4Y-1.8
X3.4Y-1.9
X3.4Y-2.
X3.4Y-2.1
X3.4Y-2.2
X3.4Y-2.3
X3.4Y-2.4
X3.4Y-2.5
X3.4Y-2.6
X3.4Y-2.7
X3.4Y-2.8
X3.4Y-2.9
X3.4Y-3.
X3.4Y-3.1
X3.4Y-3.2
X3.4Y-3.3
T3
X1.75Y-1.85
X1.75Y-1.95
X1.75Y-2.05
X1.75Y-2.15
X1.75Y-2.25
X1.75Y-2.35
X1.75Y-2.45
X1.75Y-2.55
X1.75Y-2.65
X1.75Y-2.75
X1.75Y-2.85
X1.75Y-2.95
X1.75Y-3.05
X1.75Y-3.15
X1.75Y-3.25
X1.75Y-3.35
X1.85Y-1.5
X1.95Y-1.5
X2.05Y-1.5
X3.3Y-3.65
X3.4Y-0.8
X3.4Y-0.9
X3.4Y-1.
X3.4Y-3.65
X3.5Y-0.8
X3.5Y-0.9
X3.5Y-1.
X3.5Y-3.65
X3.6Y-3.65
X3.7Y-3.65
X3.8Y-1.45
X3.8Y-1.55
X3.8Y-1.65
X3.8Y-1.75
X3.8Y-1.85
X3.8Y-1.95
X3.8Y-2.05
X3.8Y-2.15
X3.8Y-2.25
X3.8Y-2.35
X3.8Y-2.45
X3.8Y-2.55
X3.8Y-2.65
X3.8Y-2.75
X3.8Y-2.85
X3.8Y-2.95
X3.8Y-3.65
X3.9Y-3.65
X4.Y-3.65
X4.05Y-2.45
X4.05Y-2.55
X4.05Y-2.65
X4.05Y-2.75
X4.05Y-2.85
X4.05Y-2.95
X4.05Y-3.05
X4.05Y-3.15
X4.05Y-3.25
X4.05Y-3.35
X4.1Y-3.65
X4.2Y-3.65
T0
M30
