G04 #@! TF.FileFunction,Legend,Top*
%FSLAX46Y46*%
G04 Gerber Fmt 4.6, Leading zero omitted, Abs format (unit mm)*
G04 Created by KiCad (PCBNEW 4.0.6) date 07/02/17 06:45:00*
%MOMM*%
%LPD*%
G01*
G04 APERTURE LIST*
%ADD10C,0.100000*%
%ADD11C,0.300000*%
%ADD12C,0.120000*%
%ADD13C,0.150000*%
G04 APERTURE END LIST*
D10*
D11*
X126154617Y-64538487D02*
X126081032Y-64680247D01*
X126008529Y-64750584D01*
X125864606Y-64819841D01*
X125793186Y-64818759D01*
X125651428Y-64745174D01*
X125581089Y-64672672D01*
X125511833Y-64528748D01*
X125516161Y-64243067D01*
X125589746Y-64101308D01*
X125662249Y-64030970D01*
X125806172Y-63961714D01*
X125877592Y-63962796D01*
X126019350Y-64036380D01*
X126089689Y-64108883D01*
X126158945Y-64252806D01*
X126154617Y-64538487D01*
X126223873Y-64682411D01*
X126294211Y-64754913D01*
X126435970Y-64828498D01*
X126721651Y-64832827D01*
X126865574Y-64763570D01*
X126938077Y-64693232D01*
X127011661Y-64551473D01*
X127015989Y-64265792D01*
X126946734Y-64121869D01*
X126876395Y-64049366D01*
X126734636Y-63975782D01*
X126448955Y-63971453D01*
X126305032Y-64040709D01*
X126232530Y-64111048D01*
X126158945Y-64252806D01*
X125528065Y-63457443D02*
X125542132Y-62528979D01*
X126105921Y-63037578D01*
X126109167Y-62823317D01*
X126182752Y-62681558D01*
X126255254Y-62611220D01*
X126399177Y-62541964D01*
X126756279Y-62547375D01*
X126898037Y-62620959D01*
X126968376Y-62693462D01*
X127037632Y-62837385D01*
X127031139Y-63265907D01*
X126957555Y-63407666D01*
X126885052Y-63478004D01*
X126908859Y-61906756D02*
X126981362Y-61836418D01*
X127051699Y-61908920D01*
X126979197Y-61979259D01*
X126908859Y-61906756D01*
X127051699Y-61908920D01*
X126208723Y-60967469D02*
X126135138Y-61109229D01*
X126062635Y-61179566D01*
X125918713Y-61248823D01*
X125847293Y-61247741D01*
X125705534Y-61174156D01*
X125635196Y-61101654D01*
X125565939Y-60957730D01*
X125570268Y-60672049D01*
X125643853Y-60530290D01*
X125716356Y-60459952D01*
X125860278Y-60390696D01*
X125931698Y-60391778D01*
X126073457Y-60465362D01*
X126143795Y-60537865D01*
X126213052Y-60681788D01*
X126208723Y-60967469D01*
X126277979Y-61111393D01*
X126348318Y-61183895D01*
X126490076Y-61257480D01*
X126775757Y-61261808D01*
X126919680Y-61192552D01*
X126992183Y-61122214D01*
X127065767Y-60980455D01*
X127070095Y-60694773D01*
X127000840Y-60550851D01*
X126930501Y-60478348D01*
X126788743Y-60404764D01*
X126503062Y-60400435D01*
X126359139Y-60469691D01*
X126286636Y-60540029D01*
X126213052Y-60681788D01*
X125582171Y-59886425D02*
X125596239Y-58957961D01*
X126160027Y-59466560D01*
X126163274Y-59252299D01*
X126236859Y-59110540D01*
X126309361Y-59040202D01*
X126453283Y-58970946D01*
X126810385Y-58976357D01*
X126952144Y-59049941D01*
X127022482Y-59122444D01*
X127091738Y-59266366D01*
X127085245Y-59694889D01*
X127011661Y-59836648D01*
X126939158Y-59906985D01*
X125610306Y-58029496D02*
X125612471Y-57886656D01*
X125686056Y-57744897D01*
X125758559Y-57674558D01*
X125902481Y-57605302D01*
X126189245Y-57538211D01*
X126546347Y-57543621D01*
X126830946Y-57619369D01*
X126972704Y-57692955D01*
X127043043Y-57765457D01*
X127112298Y-57909380D01*
X127110134Y-58052221D01*
X127036550Y-58193979D01*
X126964047Y-58264318D01*
X126820124Y-58333573D01*
X126533361Y-58400666D01*
X126176259Y-58395255D01*
X125891660Y-58319506D01*
X125749901Y-58245922D01*
X125679563Y-58173419D01*
X125610306Y-58029496D01*
X127144762Y-55766769D02*
X126144877Y-55751619D01*
X126287719Y-55753784D02*
X126217380Y-55681282D01*
X126148123Y-55537358D01*
X126151370Y-55323098D01*
X126224955Y-55181339D01*
X126368877Y-55112082D01*
X127154501Y-55123986D01*
X126368877Y-55112082D02*
X126227119Y-55038497D01*
X126157862Y-54894575D01*
X126161109Y-54680314D01*
X126234694Y-54538555D01*
X126378617Y-54469299D01*
X127164240Y-54481203D01*
X127175062Y-53766999D02*
X126175177Y-53751849D01*
X126318018Y-53754013D02*
X126247679Y-53681511D01*
X126178423Y-53537587D01*
X126181669Y-53323327D01*
X126255254Y-53181569D01*
X126399177Y-53112312D01*
X127184801Y-53124215D01*
X126399177Y-53112312D02*
X126257419Y-53038727D01*
X126188162Y-52894804D01*
X126191408Y-52680544D01*
X126264993Y-52538784D01*
X126408916Y-52469529D01*
X127194540Y-52481432D01*
X125708139Y-16682851D02*
X124438139Y-100502851D01*
X114300000Y-16510000D02*
X128407829Y-16723755D01*
X113030000Y-100330000D02*
X127137829Y-100543755D01*
X124438139Y-100502851D02*
X123868852Y-99367592D01*
X124438139Y-100502851D02*
X125041559Y-99385361D01*
X125708139Y-16682851D02*
X125104719Y-17800341D01*
X125708139Y-16682851D02*
X126277426Y-17818110D01*
X67374287Y-4178571D02*
X68374287Y-4178571D01*
X67731430Y-5678571D01*
X68802858Y-4178571D02*
X69731429Y-4178571D01*
X69231429Y-4750000D01*
X69445715Y-4750000D01*
X69588572Y-4821429D01*
X69660001Y-4892857D01*
X69731429Y-5035714D01*
X69731429Y-5392857D01*
X69660001Y-5535714D01*
X69588572Y-5607143D01*
X69445715Y-5678571D01*
X69017143Y-5678571D01*
X68874286Y-5607143D01*
X68802858Y-5535714D01*
X70374286Y-5535714D02*
X70445714Y-5607143D01*
X70374286Y-5678571D01*
X70302857Y-5607143D01*
X70374286Y-5535714D01*
X70374286Y-5678571D01*
X71731429Y-4178571D02*
X71445715Y-4178571D01*
X71302858Y-4250000D01*
X71231429Y-4321429D01*
X71088572Y-4535714D01*
X71017143Y-4821429D01*
X71017143Y-5392857D01*
X71088572Y-5535714D01*
X71160000Y-5607143D01*
X71302858Y-5678571D01*
X71588572Y-5678571D01*
X71731429Y-5607143D01*
X71802858Y-5535714D01*
X71874286Y-5392857D01*
X71874286Y-5035714D01*
X71802858Y-4892857D01*
X71731429Y-4821429D01*
X71588572Y-4750000D01*
X71302858Y-4750000D01*
X71160000Y-4821429D01*
X71088572Y-4892857D01*
X71017143Y-5035714D01*
X73160000Y-4178571D02*
X72874286Y-4178571D01*
X72731429Y-4250000D01*
X72660000Y-4321429D01*
X72517143Y-4535714D01*
X72445714Y-4821429D01*
X72445714Y-5392857D01*
X72517143Y-5535714D01*
X72588571Y-5607143D01*
X72731429Y-5678571D01*
X73017143Y-5678571D01*
X73160000Y-5607143D01*
X73231429Y-5535714D01*
X73302857Y-5392857D01*
X73302857Y-5035714D01*
X73231429Y-4892857D01*
X73160000Y-4821429D01*
X73017143Y-4750000D01*
X72731429Y-4750000D01*
X72588571Y-4821429D01*
X72517143Y-4892857D01*
X72445714Y-5035714D01*
X74231428Y-4178571D02*
X74374285Y-4178571D01*
X74517142Y-4250000D01*
X74588571Y-4321429D01*
X74660000Y-4464286D01*
X74731428Y-4750000D01*
X74731428Y-5107143D01*
X74660000Y-5392857D01*
X74588571Y-5535714D01*
X74517142Y-5607143D01*
X74374285Y-5678571D01*
X74231428Y-5678571D01*
X74088571Y-5607143D01*
X74017142Y-5535714D01*
X73945714Y-5392857D01*
X73874285Y-5107143D01*
X73874285Y-4750000D01*
X73945714Y-4464286D01*
X74017142Y-4321429D01*
X74088571Y-4250000D01*
X74231428Y-4178571D01*
X76517142Y-5678571D02*
X76517142Y-4678571D01*
X76517142Y-4821429D02*
X76588570Y-4750000D01*
X76731428Y-4678571D01*
X76945713Y-4678571D01*
X77088570Y-4750000D01*
X77159999Y-4892857D01*
X77159999Y-5678571D01*
X77159999Y-4892857D02*
X77231428Y-4750000D01*
X77374285Y-4678571D01*
X77588570Y-4678571D01*
X77731428Y-4750000D01*
X77802856Y-4892857D01*
X77802856Y-5678571D01*
X78517142Y-5678571D02*
X78517142Y-4678571D01*
X78517142Y-4821429D02*
X78588570Y-4750000D01*
X78731428Y-4678571D01*
X78945713Y-4678571D01*
X79088570Y-4750000D01*
X79159999Y-4892857D01*
X79159999Y-5678571D01*
X79159999Y-4892857D02*
X79231428Y-4750000D01*
X79374285Y-4678571D01*
X79588570Y-4678571D01*
X79731428Y-4750000D01*
X79802856Y-4892857D01*
X79802856Y-5678571D01*
X36830000Y-6350000D02*
X110490000Y-6350000D01*
X36830000Y-15240000D02*
X36830000Y-3650000D01*
X110490000Y-15240000D02*
X110490000Y-3650000D01*
X110490000Y-6350000D02*
X109363496Y-6936421D01*
X110490000Y-6350000D02*
X109363496Y-5763579D01*
X36830000Y-6350000D02*
X37956504Y-6936421D01*
X36830000Y-6350000D02*
X37956504Y-5763579D01*
D12*
X48740000Y-25160000D02*
X48740000Y-33260000D01*
X48780000Y-25160000D02*
X48780000Y-33260000D01*
X48820000Y-25160000D02*
X48820000Y-33260000D01*
X48860000Y-25161000D02*
X48860000Y-33259000D01*
X48900000Y-25163000D02*
X48900000Y-33257000D01*
X48940000Y-25164000D02*
X48940000Y-33256000D01*
X48980000Y-25167000D02*
X48980000Y-33253000D01*
X49020000Y-25169000D02*
X49020000Y-33251000D01*
X49060000Y-25172000D02*
X49060000Y-33248000D01*
X49100000Y-25175000D02*
X49100000Y-33245000D01*
X49140000Y-25179000D02*
X49140000Y-33241000D01*
X49180000Y-25183000D02*
X49180000Y-33237000D01*
X49220000Y-25188000D02*
X49220000Y-33232000D01*
X49260000Y-25193000D02*
X49260000Y-33227000D01*
X49300000Y-25198000D02*
X49300000Y-33222000D01*
X49340000Y-25204000D02*
X49340000Y-33216000D01*
X49380000Y-25210000D02*
X49380000Y-33210000D01*
X49420000Y-25216000D02*
X49420000Y-33204000D01*
X49461000Y-25223000D02*
X49461000Y-33197000D01*
X49501000Y-25231000D02*
X49501000Y-33189000D01*
X49541000Y-25239000D02*
X49541000Y-28230000D01*
X49541000Y-30190000D02*
X49541000Y-33181000D01*
X49581000Y-25247000D02*
X49581000Y-28230000D01*
X49581000Y-30190000D02*
X49581000Y-33173000D01*
X49621000Y-25255000D02*
X49621000Y-28230000D01*
X49621000Y-30190000D02*
X49621000Y-33165000D01*
X49661000Y-25264000D02*
X49661000Y-28230000D01*
X49661000Y-30190000D02*
X49661000Y-33156000D01*
X49701000Y-25274000D02*
X49701000Y-28230000D01*
X49701000Y-30190000D02*
X49701000Y-33146000D01*
X49741000Y-25284000D02*
X49741000Y-28230000D01*
X49741000Y-30190000D02*
X49741000Y-33136000D01*
X49781000Y-25294000D02*
X49781000Y-28230000D01*
X49781000Y-30190000D02*
X49781000Y-33126000D01*
X49821000Y-25305000D02*
X49821000Y-28230000D01*
X49821000Y-30190000D02*
X49821000Y-33115000D01*
X49861000Y-25316000D02*
X49861000Y-28230000D01*
X49861000Y-30190000D02*
X49861000Y-33104000D01*
X49901000Y-25327000D02*
X49901000Y-28230000D01*
X49901000Y-30190000D02*
X49901000Y-33093000D01*
X49941000Y-25340000D02*
X49941000Y-28230000D01*
X49941000Y-30190000D02*
X49941000Y-33080000D01*
X49981000Y-25352000D02*
X49981000Y-28230000D01*
X49981000Y-30190000D02*
X49981000Y-33068000D01*
X50021000Y-25365000D02*
X50021000Y-28230000D01*
X50021000Y-30190000D02*
X50021000Y-33055000D01*
X50061000Y-25378000D02*
X50061000Y-28230000D01*
X50061000Y-30190000D02*
X50061000Y-33042000D01*
X50101000Y-25392000D02*
X50101000Y-28230000D01*
X50101000Y-30190000D02*
X50101000Y-33028000D01*
X50141000Y-25407000D02*
X50141000Y-28230000D01*
X50141000Y-30190000D02*
X50141000Y-33013000D01*
X50181000Y-25421000D02*
X50181000Y-28230000D01*
X50181000Y-30190000D02*
X50181000Y-32999000D01*
X50221000Y-25437000D02*
X50221000Y-28230000D01*
X50221000Y-30190000D02*
X50221000Y-32983000D01*
X50261000Y-25452000D02*
X50261000Y-28230000D01*
X50261000Y-30190000D02*
X50261000Y-32968000D01*
X50301000Y-25469000D02*
X50301000Y-28230000D01*
X50301000Y-30190000D02*
X50301000Y-32951000D01*
X50341000Y-25485000D02*
X50341000Y-28230000D01*
X50341000Y-30190000D02*
X50341000Y-32935000D01*
X50381000Y-25503000D02*
X50381000Y-28230000D01*
X50381000Y-30190000D02*
X50381000Y-32917000D01*
X50421000Y-25520000D02*
X50421000Y-28230000D01*
X50421000Y-30190000D02*
X50421000Y-32900000D01*
X50461000Y-25539000D02*
X50461000Y-28230000D01*
X50461000Y-30190000D02*
X50461000Y-32881000D01*
X50501000Y-25558000D02*
X50501000Y-28230000D01*
X50501000Y-30190000D02*
X50501000Y-32862000D01*
X50541000Y-25577000D02*
X50541000Y-28230000D01*
X50541000Y-30190000D02*
X50541000Y-32843000D01*
X50581000Y-25597000D02*
X50581000Y-28230000D01*
X50581000Y-30190000D02*
X50581000Y-32823000D01*
X50621000Y-25617000D02*
X50621000Y-28230000D01*
X50621000Y-30190000D02*
X50621000Y-32803000D01*
X50661000Y-25638000D02*
X50661000Y-28230000D01*
X50661000Y-30190000D02*
X50661000Y-32782000D01*
X50701000Y-25660000D02*
X50701000Y-28230000D01*
X50701000Y-30190000D02*
X50701000Y-32760000D01*
X50741000Y-25682000D02*
X50741000Y-28230000D01*
X50741000Y-30190000D02*
X50741000Y-32738000D01*
X50781000Y-25705000D02*
X50781000Y-28230000D01*
X50781000Y-30190000D02*
X50781000Y-32715000D01*
X50821000Y-25728000D02*
X50821000Y-28230000D01*
X50821000Y-30190000D02*
X50821000Y-32692000D01*
X50861000Y-25752000D02*
X50861000Y-28230000D01*
X50861000Y-30190000D02*
X50861000Y-32668000D01*
X50901000Y-25776000D02*
X50901000Y-28230000D01*
X50901000Y-30190000D02*
X50901000Y-32644000D01*
X50941000Y-25802000D02*
X50941000Y-28230000D01*
X50941000Y-30190000D02*
X50941000Y-32618000D01*
X50981000Y-25827000D02*
X50981000Y-28230000D01*
X50981000Y-30190000D02*
X50981000Y-32593000D01*
X51021000Y-25854000D02*
X51021000Y-28230000D01*
X51021000Y-30190000D02*
X51021000Y-32566000D01*
X51061000Y-25881000D02*
X51061000Y-28230000D01*
X51061000Y-30190000D02*
X51061000Y-32539000D01*
X51101000Y-25909000D02*
X51101000Y-28230000D01*
X51101000Y-30190000D02*
X51101000Y-32511000D01*
X51141000Y-25938000D02*
X51141000Y-28230000D01*
X51141000Y-30190000D02*
X51141000Y-32482000D01*
X51181000Y-25967000D02*
X51181000Y-28230000D01*
X51181000Y-30190000D02*
X51181000Y-32453000D01*
X51221000Y-25997000D02*
X51221000Y-28230000D01*
X51221000Y-30190000D02*
X51221000Y-32423000D01*
X51261000Y-26028000D02*
X51261000Y-28230000D01*
X51261000Y-30190000D02*
X51261000Y-32392000D01*
X51301000Y-26060000D02*
X51301000Y-28230000D01*
X51301000Y-30190000D02*
X51301000Y-32360000D01*
X51341000Y-26092000D02*
X51341000Y-28230000D01*
X51341000Y-30190000D02*
X51341000Y-32328000D01*
X51381000Y-26126000D02*
X51381000Y-28230000D01*
X51381000Y-30190000D02*
X51381000Y-32294000D01*
X51421000Y-26160000D02*
X51421000Y-28230000D01*
X51421000Y-30190000D02*
X51421000Y-32260000D01*
X51461000Y-26195000D02*
X51461000Y-28230000D01*
X51461000Y-30190000D02*
X51461000Y-32225000D01*
X51501000Y-26231000D02*
X51501000Y-32189000D01*
X51541000Y-26268000D02*
X51541000Y-32152000D01*
X51581000Y-26306000D02*
X51581000Y-32114000D01*
X51621000Y-26345000D02*
X51621000Y-32075000D01*
X51661000Y-26386000D02*
X51661000Y-32034000D01*
X51701000Y-26427000D02*
X51701000Y-31993000D01*
X51741000Y-26470000D02*
X51741000Y-31950000D01*
X51781000Y-26513000D02*
X51781000Y-31907000D01*
X51821000Y-26558000D02*
X51821000Y-31862000D01*
X51861000Y-26605000D02*
X51861000Y-31815000D01*
X51901000Y-26653000D02*
X51901000Y-31767000D01*
X51941000Y-26702000D02*
X51941000Y-31718000D01*
X51981000Y-26753000D02*
X51981000Y-31667000D01*
X52021000Y-26806000D02*
X52021000Y-31614000D01*
X52061000Y-26861000D02*
X52061000Y-31559000D01*
X52101000Y-26917000D02*
X52101000Y-31503000D01*
X52141000Y-26976000D02*
X52141000Y-31444000D01*
X52181000Y-27037000D02*
X52181000Y-31383000D01*
X52221000Y-27101000D02*
X52221000Y-31319000D01*
X52261000Y-27167000D02*
X52261000Y-31253000D01*
X52301000Y-27236000D02*
X52301000Y-31184000D01*
X52341000Y-27308000D02*
X52341000Y-31112000D01*
X52381000Y-27384000D02*
X52381000Y-31036000D01*
X52421000Y-27465000D02*
X52421000Y-30955000D01*
X52461000Y-27550000D02*
X52461000Y-30870000D01*
X52501000Y-27640000D02*
X52501000Y-30780000D01*
X52541000Y-27737000D02*
X52541000Y-30683000D01*
X52581000Y-27841000D02*
X52581000Y-30579000D01*
X52621000Y-27956000D02*
X52621000Y-30464000D01*
X52661000Y-28083000D02*
X52661000Y-30337000D01*
X52701000Y-28227000D02*
X52701000Y-30193000D01*
X52741000Y-28396000D02*
X52741000Y-30024000D01*
X52781000Y-28612000D02*
X52781000Y-29808000D01*
X52821000Y-28964000D02*
X52821000Y-29456000D01*
X44790000Y-29210000D02*
X45990000Y-29210000D01*
X45390000Y-28560000D02*
X45390000Y-29860000D01*
X52830000Y-29210000D02*
G75*
G03X52830000Y-29210000I-4090000J0D01*
G01*
X78230000Y-87790000D02*
X81750000Y-87790000D01*
X78230000Y-90010000D02*
X81750000Y-90010000D01*
X78230000Y-87790000D02*
X78230000Y-87904000D01*
X78230000Y-89896000D02*
X78230000Y-90010000D01*
X81750000Y-87790000D02*
X81750000Y-87904000D01*
X81750000Y-89896000D02*
X81750000Y-90010000D01*
X78230000Y-91600000D02*
X81750000Y-91600000D01*
X78230000Y-93820000D02*
X81750000Y-93820000D01*
X78230000Y-91600000D02*
X78230000Y-91714000D01*
X78230000Y-93706000D02*
X78230000Y-93820000D01*
X81750000Y-91600000D02*
X81750000Y-91714000D01*
X81750000Y-93706000D02*
X81750000Y-93820000D01*
X46480000Y-20480000D02*
X50000000Y-20480000D01*
X46480000Y-22700000D02*
X50000000Y-22700000D01*
X46480000Y-20480000D02*
X46480000Y-20594000D01*
X46480000Y-22586000D02*
X46480000Y-22700000D01*
X50000000Y-20480000D02*
X50000000Y-20594000D01*
X50000000Y-22586000D02*
X50000000Y-22700000D01*
X60200000Y-22700000D02*
X56680000Y-22700000D01*
X60200000Y-20480000D02*
X56680000Y-20480000D01*
X60200000Y-22700000D02*
X60200000Y-22586000D01*
X60200000Y-20594000D02*
X60200000Y-20480000D01*
X56680000Y-22700000D02*
X56680000Y-22586000D01*
X56680000Y-20594000D02*
X56680000Y-20480000D01*
X57940000Y-33260000D02*
X57940000Y-25160000D01*
X57900000Y-33260000D02*
X57900000Y-25160000D01*
X57860000Y-33260000D02*
X57860000Y-25160000D01*
X57820000Y-33259000D02*
X57820000Y-25161000D01*
X57780000Y-33257000D02*
X57780000Y-25163000D01*
X57740000Y-33256000D02*
X57740000Y-25164000D01*
X57700000Y-33253000D02*
X57700000Y-25167000D01*
X57660000Y-33251000D02*
X57660000Y-25169000D01*
X57620000Y-33248000D02*
X57620000Y-25172000D01*
X57580000Y-33245000D02*
X57580000Y-25175000D01*
X57540000Y-33241000D02*
X57540000Y-25179000D01*
X57500000Y-33237000D02*
X57500000Y-25183000D01*
X57460000Y-33232000D02*
X57460000Y-25188000D01*
X57420000Y-33227000D02*
X57420000Y-25193000D01*
X57380000Y-33222000D02*
X57380000Y-25198000D01*
X57340000Y-33216000D02*
X57340000Y-25204000D01*
X57300000Y-33210000D02*
X57300000Y-25210000D01*
X57260000Y-33204000D02*
X57260000Y-25216000D01*
X57219000Y-33197000D02*
X57219000Y-25223000D01*
X57179000Y-33189000D02*
X57179000Y-25231000D01*
X57139000Y-33181000D02*
X57139000Y-30190000D01*
X57139000Y-28230000D02*
X57139000Y-25239000D01*
X57099000Y-33173000D02*
X57099000Y-30190000D01*
X57099000Y-28230000D02*
X57099000Y-25247000D01*
X57059000Y-33165000D02*
X57059000Y-30190000D01*
X57059000Y-28230000D02*
X57059000Y-25255000D01*
X57019000Y-33156000D02*
X57019000Y-30190000D01*
X57019000Y-28230000D02*
X57019000Y-25264000D01*
X56979000Y-33146000D02*
X56979000Y-30190000D01*
X56979000Y-28230000D02*
X56979000Y-25274000D01*
X56939000Y-33136000D02*
X56939000Y-30190000D01*
X56939000Y-28230000D02*
X56939000Y-25284000D01*
X56899000Y-33126000D02*
X56899000Y-30190000D01*
X56899000Y-28230000D02*
X56899000Y-25294000D01*
X56859000Y-33115000D02*
X56859000Y-30190000D01*
X56859000Y-28230000D02*
X56859000Y-25305000D01*
X56819000Y-33104000D02*
X56819000Y-30190000D01*
X56819000Y-28230000D02*
X56819000Y-25316000D01*
X56779000Y-33093000D02*
X56779000Y-30190000D01*
X56779000Y-28230000D02*
X56779000Y-25327000D01*
X56739000Y-33080000D02*
X56739000Y-30190000D01*
X56739000Y-28230000D02*
X56739000Y-25340000D01*
X56699000Y-33068000D02*
X56699000Y-30190000D01*
X56699000Y-28230000D02*
X56699000Y-25352000D01*
X56659000Y-33055000D02*
X56659000Y-30190000D01*
X56659000Y-28230000D02*
X56659000Y-25365000D01*
X56619000Y-33042000D02*
X56619000Y-30190000D01*
X56619000Y-28230000D02*
X56619000Y-25378000D01*
X56579000Y-33028000D02*
X56579000Y-30190000D01*
X56579000Y-28230000D02*
X56579000Y-25392000D01*
X56539000Y-33013000D02*
X56539000Y-30190000D01*
X56539000Y-28230000D02*
X56539000Y-25407000D01*
X56499000Y-32999000D02*
X56499000Y-30190000D01*
X56499000Y-28230000D02*
X56499000Y-25421000D01*
X56459000Y-32983000D02*
X56459000Y-30190000D01*
X56459000Y-28230000D02*
X56459000Y-25437000D01*
X56419000Y-32968000D02*
X56419000Y-30190000D01*
X56419000Y-28230000D02*
X56419000Y-25452000D01*
X56379000Y-32951000D02*
X56379000Y-30190000D01*
X56379000Y-28230000D02*
X56379000Y-25469000D01*
X56339000Y-32935000D02*
X56339000Y-30190000D01*
X56339000Y-28230000D02*
X56339000Y-25485000D01*
X56299000Y-32917000D02*
X56299000Y-30190000D01*
X56299000Y-28230000D02*
X56299000Y-25503000D01*
X56259000Y-32900000D02*
X56259000Y-30190000D01*
X56259000Y-28230000D02*
X56259000Y-25520000D01*
X56219000Y-32881000D02*
X56219000Y-30190000D01*
X56219000Y-28230000D02*
X56219000Y-25539000D01*
X56179000Y-32862000D02*
X56179000Y-30190000D01*
X56179000Y-28230000D02*
X56179000Y-25558000D01*
X56139000Y-32843000D02*
X56139000Y-30190000D01*
X56139000Y-28230000D02*
X56139000Y-25577000D01*
X56099000Y-32823000D02*
X56099000Y-30190000D01*
X56099000Y-28230000D02*
X56099000Y-25597000D01*
X56059000Y-32803000D02*
X56059000Y-30190000D01*
X56059000Y-28230000D02*
X56059000Y-25617000D01*
X56019000Y-32782000D02*
X56019000Y-30190000D01*
X56019000Y-28230000D02*
X56019000Y-25638000D01*
X55979000Y-32760000D02*
X55979000Y-30190000D01*
X55979000Y-28230000D02*
X55979000Y-25660000D01*
X55939000Y-32738000D02*
X55939000Y-30190000D01*
X55939000Y-28230000D02*
X55939000Y-25682000D01*
X55899000Y-32715000D02*
X55899000Y-30190000D01*
X55899000Y-28230000D02*
X55899000Y-25705000D01*
X55859000Y-32692000D02*
X55859000Y-30190000D01*
X55859000Y-28230000D02*
X55859000Y-25728000D01*
X55819000Y-32668000D02*
X55819000Y-30190000D01*
X55819000Y-28230000D02*
X55819000Y-25752000D01*
X55779000Y-32644000D02*
X55779000Y-30190000D01*
X55779000Y-28230000D02*
X55779000Y-25776000D01*
X55739000Y-32618000D02*
X55739000Y-30190000D01*
X55739000Y-28230000D02*
X55739000Y-25802000D01*
X55699000Y-32593000D02*
X55699000Y-30190000D01*
X55699000Y-28230000D02*
X55699000Y-25827000D01*
X55659000Y-32566000D02*
X55659000Y-30190000D01*
X55659000Y-28230000D02*
X55659000Y-25854000D01*
X55619000Y-32539000D02*
X55619000Y-30190000D01*
X55619000Y-28230000D02*
X55619000Y-25881000D01*
X55579000Y-32511000D02*
X55579000Y-30190000D01*
X55579000Y-28230000D02*
X55579000Y-25909000D01*
X55539000Y-32482000D02*
X55539000Y-30190000D01*
X55539000Y-28230000D02*
X55539000Y-25938000D01*
X55499000Y-32453000D02*
X55499000Y-30190000D01*
X55499000Y-28230000D02*
X55499000Y-25967000D01*
X55459000Y-32423000D02*
X55459000Y-30190000D01*
X55459000Y-28230000D02*
X55459000Y-25997000D01*
X55419000Y-32392000D02*
X55419000Y-30190000D01*
X55419000Y-28230000D02*
X55419000Y-26028000D01*
X55379000Y-32360000D02*
X55379000Y-30190000D01*
X55379000Y-28230000D02*
X55379000Y-26060000D01*
X55339000Y-32328000D02*
X55339000Y-30190000D01*
X55339000Y-28230000D02*
X55339000Y-26092000D01*
X55299000Y-32294000D02*
X55299000Y-30190000D01*
X55299000Y-28230000D02*
X55299000Y-26126000D01*
X55259000Y-32260000D02*
X55259000Y-30190000D01*
X55259000Y-28230000D02*
X55259000Y-26160000D01*
X55219000Y-32225000D02*
X55219000Y-30190000D01*
X55219000Y-28230000D02*
X55219000Y-26195000D01*
X55179000Y-32189000D02*
X55179000Y-26231000D01*
X55139000Y-32152000D02*
X55139000Y-26268000D01*
X55099000Y-32114000D02*
X55099000Y-26306000D01*
X55059000Y-32075000D02*
X55059000Y-26345000D01*
X55019000Y-32034000D02*
X55019000Y-26386000D01*
X54979000Y-31993000D02*
X54979000Y-26427000D01*
X54939000Y-31950000D02*
X54939000Y-26470000D01*
X54899000Y-31907000D02*
X54899000Y-26513000D01*
X54859000Y-31862000D02*
X54859000Y-26558000D01*
X54819000Y-31815000D02*
X54819000Y-26605000D01*
X54779000Y-31767000D02*
X54779000Y-26653000D01*
X54739000Y-31718000D02*
X54739000Y-26702000D01*
X54699000Y-31667000D02*
X54699000Y-26753000D01*
X54659000Y-31614000D02*
X54659000Y-26806000D01*
X54619000Y-31559000D02*
X54619000Y-26861000D01*
X54579000Y-31503000D02*
X54579000Y-26917000D01*
X54539000Y-31444000D02*
X54539000Y-26976000D01*
X54499000Y-31383000D02*
X54499000Y-27037000D01*
X54459000Y-31319000D02*
X54459000Y-27101000D01*
X54419000Y-31253000D02*
X54419000Y-27167000D01*
X54379000Y-31184000D02*
X54379000Y-27236000D01*
X54339000Y-31112000D02*
X54339000Y-27308000D01*
X54299000Y-31036000D02*
X54299000Y-27384000D01*
X54259000Y-30955000D02*
X54259000Y-27465000D01*
X54219000Y-30870000D02*
X54219000Y-27550000D01*
X54179000Y-30780000D02*
X54179000Y-27640000D01*
X54139000Y-30683000D02*
X54139000Y-27737000D01*
X54099000Y-30579000D02*
X54099000Y-27841000D01*
X54059000Y-30464000D02*
X54059000Y-27956000D01*
X54019000Y-30337000D02*
X54019000Y-28083000D01*
X53979000Y-30193000D02*
X53979000Y-28227000D01*
X53939000Y-30024000D02*
X53939000Y-28396000D01*
X53899000Y-29808000D02*
X53899000Y-28612000D01*
X53859000Y-29456000D02*
X53859000Y-28964000D01*
X61890000Y-29210000D02*
X60690000Y-29210000D01*
X61290000Y-29860000D02*
X61290000Y-28560000D01*
X62030000Y-29210000D02*
G75*
G03X62030000Y-29210000I-4090000J0D01*
G01*
X48100000Y-89660000D02*
X48100000Y-93180000D01*
X45880000Y-89660000D02*
X45880000Y-93180000D01*
X48100000Y-89660000D02*
X47986000Y-89660000D01*
X45994000Y-89660000D02*
X45880000Y-89660000D01*
X48100000Y-93180000D02*
X47986000Y-93180000D01*
X45994000Y-93180000D02*
X45880000Y-93180000D01*
X58930000Y-95090000D02*
X55410000Y-95090000D01*
X58930000Y-92870000D02*
X55410000Y-92870000D01*
X58930000Y-95090000D02*
X58930000Y-94976000D01*
X58930000Y-92984000D02*
X58930000Y-92870000D01*
X55410000Y-95090000D02*
X55410000Y-94976000D01*
X55410000Y-92984000D02*
X55410000Y-92870000D01*
X95190000Y-38100000D02*
X95190000Y-76260000D01*
X95190000Y-76260000D02*
X97850000Y-76260000D01*
X97850000Y-76260000D02*
X97850000Y-38100000D01*
X97850000Y-38100000D02*
X95190000Y-38100000D01*
X95190000Y-36830000D02*
X95190000Y-35500000D01*
X95190000Y-35500000D02*
X96520000Y-35500000D01*
X104200000Y-83820000D02*
X104200000Y-60900000D01*
X104200000Y-60900000D02*
X101540000Y-60900000D01*
X101540000Y-60900000D02*
X101540000Y-83820000D01*
X101540000Y-83820000D02*
X104200000Y-83820000D01*
X104200000Y-85090000D02*
X104200000Y-86420000D01*
X104200000Y-86420000D02*
X102870000Y-86420000D01*
X43120000Y-48260000D02*
X43120000Y-86420000D01*
X43120000Y-86420000D02*
X45780000Y-86420000D01*
X45780000Y-86420000D02*
X45780000Y-48260000D01*
X45780000Y-48260000D02*
X43120000Y-48260000D01*
X43120000Y-46990000D02*
X43120000Y-45660000D01*
X43120000Y-45660000D02*
X44450000Y-45660000D01*
X65630000Y-40640000D02*
G75*
G03X65630000Y-40640000I-860000J0D01*
G01*
X64770000Y-41500000D02*
X64770000Y-42180000D01*
X60550000Y-43180000D02*
G75*
G03X60550000Y-43180000I-860000J0D01*
G01*
X59690000Y-42320000D02*
X59690000Y-41640000D01*
X64360000Y-50800000D02*
G75*
G03X64360000Y-50800000I-860000J0D01*
G01*
X63500000Y-51660000D02*
X63500000Y-52340000D01*
X65630000Y-69850000D02*
G75*
G03X65630000Y-69850000I-860000J0D01*
G01*
X64770000Y-70710000D02*
X64770000Y-71390000D01*
X65630000Y-64770000D02*
G75*
G03X65630000Y-64770000I-860000J0D01*
G01*
X64770000Y-65630000D02*
X64770000Y-66310000D01*
X64360000Y-74930000D02*
G75*
G03X64360000Y-74930000I-860000J0D01*
G01*
X63500000Y-75790000D02*
X63500000Y-76470000D01*
X65630000Y-62230000D02*
G75*
G03X65630000Y-62230000I-860000J0D01*
G01*
X64770000Y-61370000D02*
X64770000Y-60690000D01*
X77740000Y-34170000D02*
X72160000Y-34170000D01*
X72160000Y-34170000D02*
X72160000Y-85210000D01*
X72160000Y-85210000D02*
X85320000Y-85210000D01*
X85320000Y-85210000D02*
X85320000Y-34170000D01*
X85320000Y-34170000D02*
X79740000Y-34170000D01*
X79740000Y-34170000D02*
G75*
G02X77740000Y-34170000I-1000000J0D01*
G01*
X44410000Y-35480000D02*
X54650000Y-35480000D01*
X44410000Y-40121000D02*
X54650000Y-40121000D01*
X44410000Y-35480000D02*
X44410000Y-40121000D01*
X54650000Y-35480000D02*
X54650000Y-40121000D01*
X44410000Y-36990000D02*
X54650000Y-36990000D01*
X47680000Y-35480000D02*
X47680000Y-36990000D01*
X51381000Y-35480000D02*
X51381000Y-36990000D01*
X54880000Y-46870000D02*
X53110000Y-46870000D01*
X53110000Y-46870000D02*
X53110000Y-57270000D01*
X53110000Y-57270000D02*
X58650000Y-57270000D01*
X58650000Y-57270000D02*
X58650000Y-46870000D01*
X58650000Y-46870000D02*
X56880000Y-46870000D01*
X50680000Y-46870000D02*
X50680000Y-57270000D01*
X50680000Y-57270000D02*
X61080000Y-57270000D01*
X61080000Y-57270000D02*
X61080000Y-46870000D01*
X61080000Y-46870000D02*
X50680000Y-46870000D01*
X56880000Y-46870000D02*
G75*
G02X54880000Y-46870000I-1000000J0D01*
G01*
X54880000Y-60840000D02*
X53110000Y-60840000D01*
X53110000Y-60840000D02*
X53110000Y-83940000D01*
X53110000Y-83940000D02*
X58650000Y-83940000D01*
X58650000Y-83940000D02*
X58650000Y-60840000D01*
X58650000Y-60840000D02*
X56880000Y-60840000D01*
X50680000Y-60840000D02*
X50680000Y-83940000D01*
X50680000Y-83940000D02*
X61080000Y-83940000D01*
X61080000Y-83940000D02*
X61080000Y-60840000D01*
X61080000Y-60840000D02*
X50680000Y-60840000D01*
X56880000Y-60840000D02*
G75*
G02X54880000Y-60840000I-1000000J0D01*
G01*
X76185000Y-88215000D02*
X76185000Y-94465000D01*
X71135000Y-88215000D02*
X71135000Y-94465000D01*
X71135000Y-88215000D02*
G75*
G02X76185000Y-88215000I2525000J0D01*
G01*
X71135000Y-94465000D02*
G75*
G03X76185000Y-94465000I2525000J0D01*
G01*
X52655000Y-86375000D02*
X58905000Y-86375000D01*
X52655000Y-91425000D02*
X58905000Y-91425000D01*
X52655000Y-91425000D02*
G75*
G02X52655000Y-86375000I0J2525000D01*
G01*
X58905000Y-91425000D02*
G75*
G03X58905000Y-86375000I0J2525000D01*
G01*
X85030000Y-21590000D02*
X85030000Y-26730000D01*
X85030000Y-26730000D02*
X90230000Y-26730000D01*
X90230000Y-26730000D02*
X90230000Y-18990000D01*
X90230000Y-18990000D02*
X87630000Y-18990000D01*
X87630000Y-18990000D02*
X87630000Y-21590000D01*
X87630000Y-21590000D02*
X85030000Y-21590000D01*
X85030000Y-20320000D02*
X85030000Y-18990000D01*
X85030000Y-18990000D02*
X86360000Y-18990000D01*
X105410000Y-91380000D02*
X82490000Y-91380000D01*
X82490000Y-91380000D02*
X82490000Y-94040000D01*
X82490000Y-94040000D02*
X105410000Y-94040000D01*
X105410000Y-94040000D02*
X105410000Y-91380000D01*
X106680000Y-91380000D02*
X108010000Y-91380000D01*
X108010000Y-91380000D02*
X108010000Y-92710000D01*
D13*
X48573334Y-24507143D02*
X48525715Y-24554762D01*
X48382858Y-24602381D01*
X48287620Y-24602381D01*
X48144762Y-24554762D01*
X48049524Y-24459524D01*
X48001905Y-24364286D01*
X47954286Y-24173810D01*
X47954286Y-24030952D01*
X48001905Y-23840476D01*
X48049524Y-23745238D01*
X48144762Y-23650000D01*
X48287620Y-23602381D01*
X48382858Y-23602381D01*
X48525715Y-23650000D01*
X48573334Y-23697619D01*
X49430477Y-23935714D02*
X49430477Y-24602381D01*
X49192381Y-23554762D02*
X48954286Y-24269048D01*
X49573334Y-24269048D01*
X79823334Y-87147143D02*
X79775715Y-87194762D01*
X79632858Y-87242381D01*
X79537620Y-87242381D01*
X79394762Y-87194762D01*
X79299524Y-87099524D01*
X79251905Y-87004286D01*
X79204286Y-86813810D01*
X79204286Y-86670952D01*
X79251905Y-86480476D01*
X79299524Y-86385238D01*
X79394762Y-86290000D01*
X79537620Y-86242381D01*
X79632858Y-86242381D01*
X79775715Y-86290000D01*
X79823334Y-86337619D01*
X80775715Y-87242381D02*
X80204286Y-87242381D01*
X80490000Y-87242381D02*
X80490000Y-86242381D01*
X80394762Y-86385238D01*
X80299524Y-86480476D01*
X80204286Y-86528095D01*
X79823334Y-90957143D02*
X79775715Y-91004762D01*
X79632858Y-91052381D01*
X79537620Y-91052381D01*
X79394762Y-91004762D01*
X79299524Y-90909524D01*
X79251905Y-90814286D01*
X79204286Y-90623810D01*
X79204286Y-90480952D01*
X79251905Y-90290476D01*
X79299524Y-90195238D01*
X79394762Y-90100000D01*
X79537620Y-90052381D01*
X79632858Y-90052381D01*
X79775715Y-90100000D01*
X79823334Y-90147619D01*
X80204286Y-90147619D02*
X80251905Y-90100000D01*
X80347143Y-90052381D01*
X80585239Y-90052381D01*
X80680477Y-90100000D01*
X80728096Y-90147619D01*
X80775715Y-90242857D01*
X80775715Y-90338095D01*
X80728096Y-90480952D01*
X80156667Y-91052381D01*
X80775715Y-91052381D01*
X48073334Y-19837143D02*
X48025715Y-19884762D01*
X47882858Y-19932381D01*
X47787620Y-19932381D01*
X47644762Y-19884762D01*
X47549524Y-19789524D01*
X47501905Y-19694286D01*
X47454286Y-19503810D01*
X47454286Y-19360952D01*
X47501905Y-19170476D01*
X47549524Y-19075238D01*
X47644762Y-18980000D01*
X47787620Y-18932381D01*
X47882858Y-18932381D01*
X48025715Y-18980000D01*
X48073334Y-19027619D01*
X48406667Y-18932381D02*
X49025715Y-18932381D01*
X48692381Y-19313333D01*
X48835239Y-19313333D01*
X48930477Y-19360952D01*
X48978096Y-19408571D01*
X49025715Y-19503810D01*
X49025715Y-19741905D01*
X48978096Y-19837143D01*
X48930477Y-19884762D01*
X48835239Y-19932381D01*
X48549524Y-19932381D01*
X48454286Y-19884762D01*
X48406667Y-19837143D01*
X58273334Y-24057143D02*
X58225715Y-24104762D01*
X58082858Y-24152381D01*
X57987620Y-24152381D01*
X57844762Y-24104762D01*
X57749524Y-24009524D01*
X57701905Y-23914286D01*
X57654286Y-23723810D01*
X57654286Y-23580952D01*
X57701905Y-23390476D01*
X57749524Y-23295238D01*
X57844762Y-23200000D01*
X57987620Y-23152381D01*
X58082858Y-23152381D01*
X58225715Y-23200000D01*
X58273334Y-23247619D01*
X59178096Y-23152381D02*
X58701905Y-23152381D01*
X58654286Y-23628571D01*
X58701905Y-23580952D01*
X58797143Y-23533333D01*
X59035239Y-23533333D01*
X59130477Y-23580952D01*
X59178096Y-23628571D01*
X59225715Y-23723810D01*
X59225715Y-23961905D01*
X59178096Y-24057143D01*
X59130477Y-24104762D01*
X59035239Y-24152381D01*
X58797143Y-24152381D01*
X58701905Y-24104762D01*
X58654286Y-24057143D01*
X57773334Y-34627143D02*
X57725715Y-34674762D01*
X57582858Y-34722381D01*
X57487620Y-34722381D01*
X57344762Y-34674762D01*
X57249524Y-34579524D01*
X57201905Y-34484286D01*
X57154286Y-34293810D01*
X57154286Y-34150952D01*
X57201905Y-33960476D01*
X57249524Y-33865238D01*
X57344762Y-33770000D01*
X57487620Y-33722381D01*
X57582858Y-33722381D01*
X57725715Y-33770000D01*
X57773334Y-33817619D01*
X58630477Y-33722381D02*
X58440000Y-33722381D01*
X58344762Y-33770000D01*
X58297143Y-33817619D01*
X58201905Y-33960476D01*
X58154286Y-34150952D01*
X58154286Y-34531905D01*
X58201905Y-34627143D01*
X58249524Y-34674762D01*
X58344762Y-34722381D01*
X58535239Y-34722381D01*
X58630477Y-34674762D01*
X58678096Y-34627143D01*
X58725715Y-34531905D01*
X58725715Y-34293810D01*
X58678096Y-34198571D01*
X58630477Y-34150952D01*
X58535239Y-34103333D01*
X58344762Y-34103333D01*
X58249524Y-34150952D01*
X58201905Y-34198571D01*
X58154286Y-34293810D01*
X49457143Y-91586666D02*
X49504762Y-91634285D01*
X49552381Y-91777142D01*
X49552381Y-91872380D01*
X49504762Y-92015238D01*
X49409524Y-92110476D01*
X49314286Y-92158095D01*
X49123810Y-92205714D01*
X48980952Y-92205714D01*
X48790476Y-92158095D01*
X48695238Y-92110476D01*
X48600000Y-92015238D01*
X48552381Y-91872380D01*
X48552381Y-91777142D01*
X48600000Y-91634285D01*
X48647619Y-91586666D01*
X48552381Y-91253333D02*
X48552381Y-90586666D01*
X49552381Y-91015238D01*
X57003334Y-96447143D02*
X56955715Y-96494762D01*
X56812858Y-96542381D01*
X56717620Y-96542381D01*
X56574762Y-96494762D01*
X56479524Y-96399524D01*
X56431905Y-96304286D01*
X56384286Y-96113810D01*
X56384286Y-95970952D01*
X56431905Y-95780476D01*
X56479524Y-95685238D01*
X56574762Y-95590000D01*
X56717620Y-95542381D01*
X56812858Y-95542381D01*
X56955715Y-95590000D01*
X57003334Y-95637619D01*
X57574762Y-95970952D02*
X57479524Y-95923333D01*
X57431905Y-95875714D01*
X57384286Y-95780476D01*
X57384286Y-95732857D01*
X57431905Y-95637619D01*
X57479524Y-95590000D01*
X57574762Y-95542381D01*
X57765239Y-95542381D01*
X57860477Y-95590000D01*
X57908096Y-95637619D01*
X57955715Y-95732857D01*
X57955715Y-95780476D01*
X57908096Y-95875714D01*
X57860477Y-95923333D01*
X57765239Y-95970952D01*
X57574762Y-95970952D01*
X57479524Y-96018571D01*
X57431905Y-96066190D01*
X57384286Y-96161429D01*
X57384286Y-96351905D01*
X57431905Y-96447143D01*
X57479524Y-96494762D01*
X57574762Y-96542381D01*
X57765239Y-96542381D01*
X57860477Y-96494762D01*
X57908096Y-96447143D01*
X57955715Y-96351905D01*
X57955715Y-96161429D01*
X57908096Y-96066190D01*
X57860477Y-96018571D01*
X57765239Y-95970952D01*
X96186667Y-33952381D02*
X96186667Y-34666667D01*
X96139047Y-34809524D01*
X96043809Y-34904762D01*
X95900952Y-34952381D01*
X95805714Y-34952381D01*
X97186667Y-34952381D02*
X96615238Y-34952381D01*
X96900952Y-34952381D02*
X96900952Y-33952381D01*
X96805714Y-34095238D01*
X96710476Y-34190476D01*
X96615238Y-34238095D01*
X102536667Y-86872381D02*
X102536667Y-87586667D01*
X102489047Y-87729524D01*
X102393809Y-87824762D01*
X102250952Y-87872381D01*
X102155714Y-87872381D01*
X102965238Y-86967619D02*
X103012857Y-86920000D01*
X103108095Y-86872381D01*
X103346191Y-86872381D01*
X103441429Y-86920000D01*
X103489048Y-86967619D01*
X103536667Y-87062857D01*
X103536667Y-87158095D01*
X103489048Y-87300952D01*
X102917619Y-87872381D01*
X103536667Y-87872381D01*
X44116667Y-44112381D02*
X44116667Y-44826667D01*
X44069047Y-44969524D01*
X43973809Y-45064762D01*
X43830952Y-45112381D01*
X43735714Y-45112381D01*
X44497619Y-44112381D02*
X45116667Y-44112381D01*
X44783333Y-44493333D01*
X44926191Y-44493333D01*
X45021429Y-44540952D01*
X45069048Y-44588571D01*
X45116667Y-44683810D01*
X45116667Y-44921905D01*
X45069048Y-45017143D01*
X45021429Y-45064762D01*
X44926191Y-45112381D01*
X44640476Y-45112381D01*
X44545238Y-45064762D01*
X44497619Y-45017143D01*
X67082381Y-42076666D02*
X66606190Y-42410000D01*
X67082381Y-42648095D02*
X66082381Y-42648095D01*
X66082381Y-42267142D01*
X66130000Y-42171904D01*
X66177619Y-42124285D01*
X66272857Y-42076666D01*
X66415714Y-42076666D01*
X66510952Y-42124285D01*
X66558571Y-42171904D01*
X66606190Y-42267142D01*
X66606190Y-42648095D01*
X66082381Y-41457619D02*
X66082381Y-41362380D01*
X66130000Y-41267142D01*
X66177619Y-41219523D01*
X66272857Y-41171904D01*
X66463333Y-41124285D01*
X66701429Y-41124285D01*
X66891905Y-41171904D01*
X66987143Y-41219523D01*
X67034762Y-41267142D01*
X67082381Y-41362380D01*
X67082381Y-41457619D01*
X67034762Y-41552857D01*
X66987143Y-41600476D01*
X66891905Y-41648095D01*
X66701429Y-41695714D01*
X66463333Y-41695714D01*
X66272857Y-41648095D01*
X66177619Y-41600476D01*
X66130000Y-41552857D01*
X66082381Y-41457619D01*
X58282381Y-42076666D02*
X57806190Y-42410000D01*
X58282381Y-42648095D02*
X57282381Y-42648095D01*
X57282381Y-42267142D01*
X57330000Y-42171904D01*
X57377619Y-42124285D01*
X57472857Y-42076666D01*
X57615714Y-42076666D01*
X57710952Y-42124285D01*
X57758571Y-42171904D01*
X57806190Y-42267142D01*
X57806190Y-42648095D01*
X58282381Y-41124285D02*
X58282381Y-41695714D01*
X58282381Y-41410000D02*
X57282381Y-41410000D01*
X57425238Y-41505238D01*
X57520476Y-41600476D01*
X57568095Y-41695714D01*
X65812381Y-52236666D02*
X65336190Y-52570000D01*
X65812381Y-52808095D02*
X64812381Y-52808095D01*
X64812381Y-52427142D01*
X64860000Y-52331904D01*
X64907619Y-52284285D01*
X65002857Y-52236666D01*
X65145714Y-52236666D01*
X65240952Y-52284285D01*
X65288571Y-52331904D01*
X65336190Y-52427142D01*
X65336190Y-52808095D01*
X64907619Y-51855714D02*
X64860000Y-51808095D01*
X64812381Y-51712857D01*
X64812381Y-51474761D01*
X64860000Y-51379523D01*
X64907619Y-51331904D01*
X65002857Y-51284285D01*
X65098095Y-51284285D01*
X65240952Y-51331904D01*
X65812381Y-51903333D01*
X65812381Y-51284285D01*
X67082381Y-71286666D02*
X66606190Y-71620000D01*
X67082381Y-71858095D02*
X66082381Y-71858095D01*
X66082381Y-71477142D01*
X66130000Y-71381904D01*
X66177619Y-71334285D01*
X66272857Y-71286666D01*
X66415714Y-71286666D01*
X66510952Y-71334285D01*
X66558571Y-71381904D01*
X66606190Y-71477142D01*
X66606190Y-71858095D01*
X66082381Y-70953333D02*
X66082381Y-70334285D01*
X66463333Y-70667619D01*
X66463333Y-70524761D01*
X66510952Y-70429523D01*
X66558571Y-70381904D01*
X66653810Y-70334285D01*
X66891905Y-70334285D01*
X66987143Y-70381904D01*
X67034762Y-70429523D01*
X67082381Y-70524761D01*
X67082381Y-70810476D01*
X67034762Y-70905714D01*
X66987143Y-70953333D01*
X67082381Y-66206666D02*
X66606190Y-66540000D01*
X67082381Y-66778095D02*
X66082381Y-66778095D01*
X66082381Y-66397142D01*
X66130000Y-66301904D01*
X66177619Y-66254285D01*
X66272857Y-66206666D01*
X66415714Y-66206666D01*
X66510952Y-66254285D01*
X66558571Y-66301904D01*
X66606190Y-66397142D01*
X66606190Y-66778095D01*
X66415714Y-65349523D02*
X67082381Y-65349523D01*
X66034762Y-65587619D02*
X66749048Y-65825714D01*
X66749048Y-65206666D01*
X65812381Y-76366666D02*
X65336190Y-76700000D01*
X65812381Y-76938095D02*
X64812381Y-76938095D01*
X64812381Y-76557142D01*
X64860000Y-76461904D01*
X64907619Y-76414285D01*
X65002857Y-76366666D01*
X65145714Y-76366666D01*
X65240952Y-76414285D01*
X65288571Y-76461904D01*
X65336190Y-76557142D01*
X65336190Y-76938095D01*
X64812381Y-75461904D02*
X64812381Y-75938095D01*
X65288571Y-75985714D01*
X65240952Y-75938095D01*
X65193333Y-75842857D01*
X65193333Y-75604761D01*
X65240952Y-75509523D01*
X65288571Y-75461904D01*
X65383810Y-75414285D01*
X65621905Y-75414285D01*
X65717143Y-75461904D01*
X65764762Y-75509523D01*
X65812381Y-75604761D01*
X65812381Y-75842857D01*
X65764762Y-75938095D01*
X65717143Y-75985714D01*
X63362381Y-61126666D02*
X62886190Y-61460000D01*
X63362381Y-61698095D02*
X62362381Y-61698095D01*
X62362381Y-61317142D01*
X62410000Y-61221904D01*
X62457619Y-61174285D01*
X62552857Y-61126666D01*
X62695714Y-61126666D01*
X62790952Y-61174285D01*
X62838571Y-61221904D01*
X62886190Y-61317142D01*
X62886190Y-61698095D01*
X62362381Y-60269523D02*
X62362381Y-60460000D01*
X62410000Y-60555238D01*
X62457619Y-60602857D01*
X62600476Y-60698095D01*
X62790952Y-60745714D01*
X63171905Y-60745714D01*
X63267143Y-60698095D01*
X63314762Y-60650476D01*
X63362381Y-60555238D01*
X63362381Y-60364761D01*
X63314762Y-60269523D01*
X63267143Y-60221904D01*
X63171905Y-60174285D01*
X62933810Y-60174285D01*
X62838571Y-60221904D01*
X62790952Y-60269523D01*
X62743333Y-60364761D01*
X62743333Y-60555238D01*
X62790952Y-60650476D01*
X62838571Y-60698095D01*
X62933810Y-60745714D01*
X77978095Y-32622381D02*
X77978095Y-33431905D01*
X78025714Y-33527143D01*
X78073333Y-33574762D01*
X78168571Y-33622381D01*
X78359048Y-33622381D01*
X78454286Y-33574762D01*
X78501905Y-33527143D01*
X78549524Y-33431905D01*
X78549524Y-32622381D01*
X79549524Y-33622381D02*
X78978095Y-33622381D01*
X79263809Y-33622381D02*
X79263809Y-32622381D01*
X79168571Y-32765238D01*
X79073333Y-32860476D01*
X78978095Y-32908095D01*
X48768095Y-33932381D02*
X48768095Y-34741905D01*
X48815714Y-34837143D01*
X48863333Y-34884762D01*
X48958571Y-34932381D01*
X49149048Y-34932381D01*
X49244286Y-34884762D01*
X49291905Y-34837143D01*
X49339524Y-34741905D01*
X49339524Y-33932381D01*
X49768095Y-34027619D02*
X49815714Y-33980000D01*
X49910952Y-33932381D01*
X50149048Y-33932381D01*
X50244286Y-33980000D01*
X50291905Y-34027619D01*
X50339524Y-34122857D01*
X50339524Y-34218095D01*
X50291905Y-34360952D01*
X49720476Y-34932381D01*
X50339524Y-34932381D01*
X55118095Y-45322381D02*
X55118095Y-46131905D01*
X55165714Y-46227143D01*
X55213333Y-46274762D01*
X55308571Y-46322381D01*
X55499048Y-46322381D01*
X55594286Y-46274762D01*
X55641905Y-46227143D01*
X55689524Y-46131905D01*
X55689524Y-45322381D01*
X56070476Y-45322381D02*
X56689524Y-45322381D01*
X56356190Y-45703333D01*
X56499048Y-45703333D01*
X56594286Y-45750952D01*
X56641905Y-45798571D01*
X56689524Y-45893810D01*
X56689524Y-46131905D01*
X56641905Y-46227143D01*
X56594286Y-46274762D01*
X56499048Y-46322381D01*
X56213333Y-46322381D01*
X56118095Y-46274762D01*
X56070476Y-46227143D01*
X55118095Y-59292381D02*
X55118095Y-60101905D01*
X55165714Y-60197143D01*
X55213333Y-60244762D01*
X55308571Y-60292381D01*
X55499048Y-60292381D01*
X55594286Y-60244762D01*
X55641905Y-60197143D01*
X55689524Y-60101905D01*
X55689524Y-59292381D01*
X56594286Y-59625714D02*
X56594286Y-60292381D01*
X56356190Y-59244762D02*
X56118095Y-59959048D01*
X56737143Y-59959048D01*
X77161190Y-91816191D02*
X77637381Y-91816191D01*
X76637381Y-92149524D02*
X77161190Y-91816191D01*
X76637381Y-91482857D01*
X77637381Y-90625714D02*
X77637381Y-91197143D01*
X77637381Y-90911429D02*
X76637381Y-90911429D01*
X76780238Y-91006667D01*
X76875476Y-91101905D01*
X76923095Y-91197143D01*
X55303809Y-85351190D02*
X55303809Y-85827381D01*
X54970476Y-84827381D02*
X55303809Y-85351190D01*
X55637143Y-84827381D01*
X55922857Y-84922619D02*
X55970476Y-84875000D01*
X56065714Y-84827381D01*
X56303810Y-84827381D01*
X56399048Y-84875000D01*
X56446667Y-84922619D01*
X56494286Y-85017857D01*
X56494286Y-85113095D01*
X56446667Y-85255952D01*
X55875238Y-85827381D01*
X56494286Y-85827381D01*
X87296667Y-17442381D02*
X87296667Y-18156667D01*
X87249047Y-18299524D01*
X87153809Y-18394762D01*
X87010952Y-18442381D01*
X86915714Y-18442381D01*
X88201429Y-17775714D02*
X88201429Y-18442381D01*
X87963333Y-17394762D02*
X87725238Y-18109048D01*
X88344286Y-18109048D01*
X108462381Y-93043333D02*
X109176667Y-93043333D01*
X109319524Y-93090953D01*
X109414762Y-93186191D01*
X109462381Y-93329048D01*
X109462381Y-93424286D01*
X108462381Y-92090952D02*
X108462381Y-92567143D01*
X108938571Y-92614762D01*
X108890952Y-92567143D01*
X108843333Y-92471905D01*
X108843333Y-92233809D01*
X108890952Y-92138571D01*
X108938571Y-92090952D01*
X109033810Y-92043333D01*
X109271905Y-92043333D01*
X109367143Y-92090952D01*
X109414762Y-92138571D01*
X109462381Y-92233809D01*
X109462381Y-92471905D01*
X109414762Y-92567143D01*
X109367143Y-92614762D01*
M02*
